# xmcd
#
# Track frame offsets: 
#        150
#        22320
#        41057
#        62625
#        78837
#        97022
#        111802
#        129227
#        145437
#        162775
#        184592
#        201950
#        217925
#
# Disc length: 3129 seconds
#
# Revision: 0
# Processed by: cddbd v1.5PL3 Copyright (c) Steve Scherf et al.
# Submitted via: ExactAudioCopy v0.90b4
#
DISCID=b50c370d
DTITLE=Chitãozinho and Xororó - Especial Atividade FM
DYEAR=1999
DGENRE=Country
TTITLE0=Eviências
TTITLE1=Nuvem De Lágrimas
TTITLE2=Um Homem Quando Ama (Have You Ever Really Loved A Woman)
TTITLE3=Página De Amigos
TTITLE4=Brincar De Ser Feliz
TTITLE5=Vá Pro Inferno Com Seu Amor
TTITLE6=Só Quem Amou Demais
TTITLE7=Coração Sertanejo
TTITLE8=Ela Não Vai Mais Chorar (She's Not Crying Anymore) Com Billy R
TTITLE8=ay Cyrus
TTITLE9=Somos Assim
TTITLE10=Eu Menti
TTITLE11=Deixei De Ser Cowboy Por Ela
TTITLE12=Feito Eu
EXTD=
EXTT0=
EXTT1=
EXTT2=
EXTT3=
EXTT4=
EXTT5=
EXTT6=
EXTT7=
EXTT8=
EXTT9=
EXTT10=
EXTT11=
EXTT12=
PLAYORDER=
